
      <svg data-logo="logo" xmlns="http://www.w3.org/2000/svg" viewBox="0 0 29 35">
        <g id="logogram" transform="translate(0, 17.5) rotate(0) "></g>
        <g id="logotype" transform="translate(0, 1)"><path fill="#198754" d="M27.79 32.73Q20.37 32.73 15.91 32.27Q11.45 31.82 8.23 30.33Q5.01 28.84 2.84 25.87L2.84 25.87Q0.49 22.48 0.49 16.38L0.49 16.38Q0.49 9.28 4.01 5.78Q7.53 2.28 13.86 2.28L13.86 2.28Q20.16 2.28 23.70 5.38Q27.23 8.47 27.23 14.63L27.23 14.63Q27.23 17.29 26.37 19.62Q25.52 21.95 23.42 23.91L23.42 23.91L23.59 24.26L27.79 24.26L27.79 32.73ZM13.86 24.26Q16.24 24.26 16.24 21.67L16.24 21.67L16.24 11.10Q16.24 8.51 13.86 8.51L13.86 8.51Q11.48 8.51 11.48 11.10L11.48 11.10L11.48 21.67Q11.48 24.26 13.86 24.26L13.86 24.26Z"/></g>
        
      </svg>
    