
      <svg data-logo="logo" xmlns="http://www.w3.org/2000/svg" viewBox="0 0 165 34">
        <g id="logogram" transform="translate(0, 17) rotate(0) "></g>
        <g id="logotype" transform="translate(0, 1)"><path fill="#198754" d="M14.56 29.35L14.56 29.35Q11.94 29.35 9.61 28.44Q7.28 27.53 5.50 25.80Q3.71 24.06 2.68 21.61Q1.65 19.16 1.65 16.09L1.65 16.09Q1.65 12.97 2.68 10.52Q3.71 8.07 5.51 6.35Q7.32 4.64 9.64 3.75Q11.97 2.85 14.56 2.85L14.56 2.85Q17.15 2.85 19.48 3.75Q21.81 4.64 23.61 6.35Q25.41 8.07 26.44 10.52Q27.48 12.97 27.48 16.09L27.48 16.09Q27.48 19.97 25.87 22.84Q24.26 25.71 21.63 27.36L21.63 27.36L24.82 32.29L20.93 32.29L18.62 28.75Q16.66 29.35 14.56 29.35ZM14.56 25.81L14.56 25.81Q15.61 25.81 16.59 25.61L16.59 25.61L14.25 21.79L18.17 21.79L19.67 24.24Q21.32 23.05 22.31 21.00Q23.31 18.95 23.31 16.12L23.31 16.12Q23.31 12.93 22.12 10.78Q20.93 8.63 18.95 7.53Q16.98 6.42 14.56 6.42L14.56 6.42Q12.15 6.42 10.17 7.53Q8.19 8.63 7.00 10.78Q5.81 12.93 5.81 16.12L5.81 16.12Q5.81 19.27 7.04 21.42Q8.26 23.57 10.26 24.70Q12.25 25.81 14.56 25.81ZM35.49 29.35L35.49 29.35Q33.08 29.35 31.82 28.34Q30.56 27.32 30.12 25.64Q29.68 23.96 29.68 21.93L29.68 21.93L29.68 12.93L33.46 12.93L33.46 20.98Q33.46 22.84 33.69 23.99Q33.92 25.15 34.60 25.69Q35.28 26.23 36.65 26.23L36.65 26.23Q37.63 26.23 38.52 25.69Q39.41 25.15 40.01 24.19Q40.60 23.23 40.60 22.04L40.60 22.04L40.60 12.93L44.35 12.93L44.35 29L41.27 29L40.85 26.66Q39.97 27.98 38.68 28.67Q37.38 29.35 35.49 29.35ZM55.20 29.35L55.20 29.35Q52.68 29.35 50.77 28.23Q48.86 27.11 47.81 25.18Q46.76 23.26 46.76 20.91L46.76 20.91Q46.76 18.60 47.79 16.70Q48.83 14.79 50.72 13.65Q52.61 12.51 55.20 12.51L55.20 12.51Q57.79 12.51 59.68 13.65Q61.57 14.79 62.58 16.70Q63.60 18.60 63.60 20.91L63.60 20.91Q63.60 23.26 62.56 25.18Q61.53 27.11 59.64 28.23Q57.75 29.35 55.20 29.35ZM55.30 26.27L55.30 26.27Q57.40 26.27 58.54 24.73Q59.68 23.19 59.68 20.98L59.68 20.98Q59.68 19.48 59.12 18.27Q58.56 17.06 57.52 16.33Q56.49 15.59 55.09 15.59L55.09 15.59Q53.73 15.59 52.75 16.33Q51.77 17.06 51.22 18.27Q50.68 19.48 50.68 20.98L50.68 20.98Q50.68 22.45 51.28 23.66Q51.87 24.87 52.90 25.57Q53.94 26.27 55.30 26.27ZM71.16 29L67.34 29L67.34 16.02L64.51 16.02L64.51 12.93L67.34 12.93L67.34 6.39L71.16 5.55L71.16 12.93L74.87 12.93L74.87 16.02L71.16 16.02L71.16 29ZM83.86 29.35L83.86 29.35Q80.85 29.35 78.96 28.18Q77.07 27.00 76.20 25.08Q75.32 23.16 75.32 20.98L75.32 20.98Q75.32 18.36 76.39 16.47Q77.45 14.58 79.34 13.55Q81.23 12.51 83.62 12.51L83.62 12.51Q87.43 12.51 89.18 14.63Q90.93 16.75 90.93 20.32L90.93 20.32Q90.93 21.27 90.83 22.28L90.83 22.28L79.28 22.28Q79.66 24.45 80.83 25.38Q82.00 26.30 83.97 26.30L83.97 26.30Q85.86 26.30 86.94 25.95Q88.03 25.61 88.73 25.25L88.73 25.25L89.88 27.95Q89.18 28.41 87.71 28.88Q86.24 29.35 83.86 29.35ZM79.28 19.66L79.28 19.66L87.25 19.66Q87.29 17.38 86.24 16.54Q85.19 15.70 83.51 15.70L83.51 15.70Q81.76 15.70 80.66 16.63Q79.56 17.55 79.28 19.66ZM102.72 29.35L102.72 29.35Q101.33 29.35 100.17 28.88Q99.02 28.41 98.23 27.67Q97.44 26.93 97.06 26.16L97.06 26.16L96.98 29L93.34 29L93.34 3.27L97.06 3.27L97.06 13.18L96.88 15.91Q97.27 15.00 98.17 14.23Q99.08 13.46 100.33 12.99Q101.57 12.51 102.97 12.51L102.97 12.51Q105.39 12.51 107.14 13.58Q108.89 14.65 109.83 16.56Q110.78 18.46 110.78 20.98L110.78 20.98Q110.78 23.61 109.66 25.48Q108.53 27.36 106.72 28.35Q104.89 29.35 102.72 29.35ZM102.09 26.20L102.09 26.20Q104.47 26.20 105.65 24.70Q106.82 23.19 106.82 20.98L106.82 20.98Q106.82 18.71 105.65 17.22Q104.47 15.73 102.09 15.73L102.09 15.73Q100.83 15.73 99.75 16.35Q98.67 16.96 98.02 18.08Q97.37 19.20 97.37 20.74L97.37 20.74L97.37 20.98Q97.41 22.52 98.03 23.71Q98.67 24.91 99.73 25.55Q100.80 26.20 102.09 26.20ZM120.61 29.35L120.61 29.35Q118.09 29.35 116.18 28.23Q114.27 27.11 113.22 25.18Q112.17 23.26 112.17 20.91L112.17 20.91Q112.17 18.60 113.21 16.70Q114.24 14.79 116.13 13.65Q118.02 12.51 120.61 12.51L120.61 12.51Q123.20 12.51 125.09 13.65Q126.98 14.79 127.99 16.70Q129.01 18.60 129.01 20.91L129.01 20.91Q129.01 23.26 127.98 25.18Q126.94 27.11 125.05 28.23Q123.16 29.35 120.61 29.35ZM120.71 26.27L120.71 26.27Q122.81 26.27 123.95 24.73Q125.09 23.19 125.09 20.98L125.09 20.98Q125.09 19.48 124.53 18.27Q123.97 17.06 122.94 16.33Q121.90 15.59 120.50 15.59L120.50 15.59Q119.14 15.59 118.16 16.33Q117.18 17.06 116.64 18.27Q116.09 19.48 116.09 20.98L116.09 20.98Q116.09 22.45 116.69 23.66Q117.28 24.87 118.32 25.57Q119.35 26.27 120.71 26.27ZM138.84 29.35L138.84 29.35Q136.32 29.35 134.42 28.23Q132.51 27.11 131.46 25.18Q130.41 23.26 130.41 20.91L130.41 20.91Q130.41 18.60 131.44 16.70Q132.47 14.79 134.36 13.65Q136.25 12.51 138.84 12.51L138.84 12.51Q141.43 12.51 143.32 13.65Q145.21 14.79 146.23 16.70Q147.24 18.60 147.24 20.91L147.24 20.91Q147.24 23.26 146.21 25.18Q145.18 27.11 143.29 28.23Q141.40 29.35 138.84 29.35ZM138.95 26.27L138.95 26.27Q141.05 26.27 142.19 24.73Q143.32 23.19 143.32 20.98L143.32 20.98Q143.32 19.48 142.76 18.27Q142.20 17.06 141.17 16.33Q140.14 15.59 138.74 15.59L138.74 15.59Q137.37 15.59 136.39 16.33Q135.41 17.06 134.87 18.27Q134.33 19.48 134.33 20.98L134.33 20.98Q134.33 22.45 134.92 23.66Q135.52 24.87 136.55 25.57Q137.58 26.27 138.95 26.27ZM153.40 29L149.76 29L149.76 3.27L153.37 3.27L153.37 17.38L153.30 20.11L159.42 12.93L164.08 12.93L158.02 19.66L164.11 29L159.67 29L156.41 23.75L155.50 21.96L153.40 24.24L153.40 29Z"/></g>
        
      </svg>
    